# xmcd CD database file
#
# Track frame offsets:
#	150
#	22890
#	39630
#	60555
#	78480
#	95025
#	115065
#	131100
#	151650
#	168570
#	189705
#	209613
#	226398
#	247173
#
# Disc length: 3581 seconds
#
# Revision: 0
# Processed by: cddbd v1.5.1PL0 Copyright (c) Steve Scherf et al.
# Submitted via: CDex 1.51
#
DISCID=c00dfb0e
DTITLE=氷室京介 - 21st Century Boowys VS HIMURO DISK2
DYEAR=2004
DGENRE=JPop
TTITLE0=Virus
TTITLE1=Love Shaker
TTITLE2=Girls Be Glamorous
TTITLE3=TO THE HIGHWAY
TTITLE4=DOWN TOWN SHUFFLE
TTITLE5=BEAT SWEET
TTITLE6=RENDEZ-VOUS
TTITLE7=ONLY YOU
TTITLE8=IMAGE DOWN
TTITLE9=Gonna be Rogue?
TTITLE10=ANGEL2003
TTITLE11=MARIONETTE
TTITLE12=DREAMIN'
TTITLE13=NO. NEW YORK
EXTD=YEAR: 2004
EXTT0=
EXTT1=
EXTT2=
EXTT3=
EXTT4=
EXTT5=
EXTT6=
EXTT7=
EXTT8=
EXTT9=
EXTT10=
EXTT11=
EXTT12=
EXTT13=
PLAYORDER=
